<svg width="40" height="40" viewBox="0 0 40 40" fill="none" xmlns="http://www.w3.org/2000/svg">
<path d="M21.875 5.04073C21.875 5.54609 21.6337 6.00024 21.25 6.31325V8.45536H27.5C28.4946 8.45536 29.4484 8.81511 30.1516 9.45548C30.8549 10.0958 31.25 10.9644 31.25 11.87V23.2521C31.25 24.1577 30.8549 25.0262 30.1516 25.6666C29.4484 26.307 28.4946 26.6667 27.5 26.6667H12.5C11.5054 26.6667 10.5516 26.307 9.84835 25.6666C9.14509 25.0262 8.75 24.1577 8.75 23.2521V11.87C8.75 10.9644 9.14509 10.0958 9.84835 9.45548C10.5516 8.81511 11.5054 8.45536 12.5 8.45536H18.75V6.31325C18.5169 6.12338 18.3396 5.88344 18.2344 5.61526C18.1291 5.34708 18.0992 5.05918 18.1474 4.77778C18.1955 4.49639 18.3202 4.23043 18.5101 4.00413C18.7 3.77784 18.949 3.59839 19.2346 3.48212C19.5201 3.36586 19.833 3.31648 20.1448 3.33847C20.4566 3.36047 20.7575 3.45315 21.0199 3.60806C21.2824 3.76298 21.4981 3.97521 21.6474 4.22544C21.7968 4.47566 21.875 4.75593 21.875 5.04073ZM12.5 10.7318C12.1685 10.7318 11.8505 10.8517 11.6161 11.0651C11.3817 11.2786 11.25 11.5681 11.25 11.87V23.2521C11.25 23.554 11.3817 23.8435 11.6161 24.0569C11.8505 24.2704 12.1685 24.3903 12.5 24.3903H27.5C27.8315 24.3903 28.1495 24.2704 28.3839 24.0569C28.6183 23.8435 28.75 23.554 28.75 23.2521V11.87C28.75 11.5681 28.6183 11.2786 28.3839 11.0651C28.1495 10.8517 27.8315 10.7318 27.5 10.7318H12.5ZM7.5 14.1464H5V20.9757H7.5V14.1464ZM32.5 14.1464H35V20.9757H32.5V14.1464ZM16.25 19.2683C16.7473 19.2683 17.2242 19.0885 17.5758 18.7683C17.9275 18.4481 18.125 18.0138 18.125 17.561C18.125 17.1082 17.9275 16.674 17.5758 16.3538C17.2242 16.0336 16.7473 15.8537 16.25 15.8537C15.7527 15.8537 15.2758 16.0336 14.9242 16.3538C14.5725 16.674 14.375 17.1082 14.375 17.561C14.375 18.0138 14.5725 18.4481 14.9242 18.7683C15.2758 19.0885 15.7527 19.2683 16.25 19.2683ZM23.75 19.2683C24.2473 19.2683 24.7242 19.0885 25.0758 18.7683C25.4275 18.4481 25.625 18.0138 25.625 17.561C25.625 17.1082 25.4275 16.674 25.0758 16.3538C24.7242 16.0336 24.2473 15.8537 23.75 15.8537C23.2527 15.8537 22.7758 16.0336 22.4242 16.3538C22.0725 16.674 21.875 17.1082 21.875 17.561C21.875 18.0138 22.0725 18.4481 22.4242 18.7683C22.7758 19.0885 23.2527 19.2683 23.75 19.2683Z" fill="#2B7FFF"/>
<path d="M20.7407 29.5238H22.963V35.4762H20.7407V36.6667H26.6667V35.4762H24.4444V29.5238H26.6667V28.3334H20.7407V29.5238ZM17.7778 28.3334H14.8148C13.9978 28.3334 13.3333 28.8673 13.3333 29.5238V36.6667H14.8148V33.6905H17.7778V36.6667H19.2593V29.5238C19.2593 28.8673 18.5948 28.3334 17.7778 28.3334ZM14.8148 32.5V29.5238H17.7778V32.5H14.8148Z" fill="#2B7FFF"/>
</svg>
