<svg width="40" height="40" viewBox="0 0 40 40" fill="none" xmlns="http://www.w3.org/2000/svg">
<path d="M7.2 10.6079C7.424 10.5087 7.69227 10.4031 8.0048 10.2912C9.55602 9.75711 11.1738 9.49026 12.8 9.50017C14.4262 9.49026 16.044 9.75711 17.5952 10.2912C17.9077 10.4031 18.176 10.5087 18.4 10.6079V29.6474C16.5852 29.0421 14.6973 28.7395 12.8 28.7497C10.464 28.7497 8.5616 29.1837 7.2 29.6474V10.6079ZM20 7.54897C19.5362 7.32517 19.062 7.12832 18.5792 6.95923C16.71 6.31337 14.7602 5.98983 12.8 6.00025C10.3584 6.00025 8.392 6.47449 7.0208 6.95923C6.47502 7.15107 5.9402 7.37839 5.4192 7.63996C5.22565 7.73799 5.03515 7.84305 4.848 7.95496L4.808 7.97946L4.7936 7.98821L4.7888 7.9917C4.7856 7.9952 4.392 8.24895 4.784 7.9952C4.54516 8.15009 4.34728 8.37029 4.20982 8.63416C4.07236 8.89803 4.00005 9.19648 4 9.50017V32.2496C4.00005 32.5585 4.07484 32.8619 4.21679 33.1289C4.35873 33.3959 4.56276 33.6171 4.80816 33.77C5.05356 33.9228 5.33158 34.0019 5.61397 33.9992C5.89637 33.9965 6.17308 33.9121 6.416 33.7546L6.408 33.7598L6.4128 33.7581L6.4144 33.7563L6.4736 33.7213C6.53333 33.6863 6.6304 33.6338 6.7648 33.5638C7.0368 33.4273 7.4528 33.2349 8.0048 33.0389C9.55611 32.5054 11.1739 32.2392 12.8 32.2496C14.4261 32.2392 16.0439 32.5054 17.5952 33.0389C18.0177 33.1868 18.4317 33.3621 18.8352 33.5638C18.956 33.6251 19.075 33.6905 19.192 33.7598M19.192 33.7598L19.1888 33.7581L19.1872 33.7563C19.6896 34.0801 20.3136 34.0801 20.816 33.7563L20.8752 33.7213C20.9349 33.6863 21.032 33.6338 21.1664 33.5638C21.5699 33.3621 21.9839 33.1868 22.4064 33.0389C23.9572 32.5056 25.5744 32.2393 27.2 32.2496C28.8261 32.2392 30.4439 32.5054 31.9952 33.0389C32.4177 33.1868 32.8317 33.3621 33.2352 33.5638C33.3538 33.6241 33.4706 33.6883 33.5856 33.7563C33.8286 33.9135 34.1053 33.9976 34.3876 33.9999C34.6699 34.0023 34.9477 33.923 35.1929 33.77C35.4381 33.617 35.6419 33.3957 35.7837 33.1287C35.9254 32.8617 36.0001 32.5584 36 32.2496V9.50017C36 9.19648 35.9276 8.89803 35.7902 8.63416C35.6527 8.37029 35.4548 8.15009 35.216 7.9952L35.2128 7.99345L35.2064 7.98821L35.1904 7.97946L35.152 7.95496C34.9648 7.84305 34.7743 7.73799 34.5808 7.63996C34.0603 7.37845 33.526 7.15114 32.9808 6.95923C31.1111 6.31319 29.1608 5.98965 27.2 6.00025C24.76 6.00025 22.792 6.47449 21.4208 6.95923C20.938 7.12832 20.4638 7.32517 20 7.54897M32.8 10.6079V29.6474C30.9852 29.0421 29.0973 28.7395 27.2 28.7497C24.864 28.7497 22.9616 29.1837 21.6 29.6474V10.6079C21.824 10.5087 22.0923 10.4031 22.4048 10.2912C23.956 9.75711 25.5738 9.49026 27.2 9.50017C28.8262 9.49026 30.444 9.75711 31.9952 10.2912C32.3077 10.4031 32.576 10.5087 32.8 10.6079ZM33.584 11.0069L33.592 11.0104H33.5904L33.584 11.0069ZM33.5856 33.7563L33.5904 33.7598L33.5872 33.7563" fill="#006D37"/>
</svg>
