<svg width="40" height="40" viewBox="0 0 40 40" fill="none" xmlns="http://www.w3.org/2000/svg">
<g clip-path="url(#clip0_883_3950)">
<path d="M28.75 5C30.4076 5 31.9973 5.65848 33.1694 6.83058C34.3415 8.00269 35 9.5924 35 11.25V16.5C34.2007 16.0917 33.3634 15.7626 32.5 15.5175V15H7.5V28.75C7.5 29.7446 7.89509 30.6984 8.59835 31.4017C9.30161 32.1049 10.2554 32.5 11.25 32.5H15.5175C15.7658 33.3733 16.0933 34.2067 16.5 35H11.25C9.5924 35 8.00269 34.3415 6.83058 33.1694C5.65848 31.9973 5 30.4076 5 28.75V11.25C5 9.5924 5.65848 8.00269 6.83058 6.83058C8.00269 5.65848 9.5924 5 11.25 5H28.75ZM28.75 7.5H11.25C10.2554 7.5 9.30161 7.89509 8.59835 8.59835C7.89509 9.30161 7.5 10.2554 7.5 11.25V12.5H32.5V11.25C32.5 10.2554 32.1049 9.30161 31.4017 8.59835C30.6984 7.89509 29.7446 7.5 28.75 7.5ZM40 28.75C40 31.7337 38.8147 34.5952 36.705 36.705C34.5952 38.8147 31.7337 40 28.75 40C25.7663 40 22.9048 38.8147 20.795 36.705C18.6853 34.5952 17.5 31.7337 17.5 28.75C17.5 25.7663 18.6853 22.9048 20.795 20.795C22.9048 18.6853 25.7663 17.5 28.75 17.5C31.7337 17.5 34.5952 18.6853 36.705 20.795C38.8147 22.9048 40 25.7663 40 28.75ZM28.75 22.5C28.4185 22.5 28.1005 22.6317 27.8661 22.8661C27.6317 23.1005 27.5 23.4185 27.5 23.75V28.75C27.5 29.0815 27.6317 29.3995 27.8661 29.6339C28.1005 29.8683 28.4185 30 28.75 30H32.5C32.8315 30 33.1495 29.8683 33.3839 29.6339C33.6183 29.3995 33.75 29.0815 33.75 28.75C33.75 28.4185 33.6183 28.1005 33.3839 27.8661C33.1495 27.6317 32.8315 27.5 32.5 27.5H30V23.75C30 23.4185 29.8683 23.1005 29.6339 22.8661C29.3995 22.6317 29.0815 22.5 28.75 22.5Z" fill="#37AA91"/>
</g>
<defs>
<clipPath id="clip0_883_3950">
<rect width="40" height="40" fill="white"/>
</clipPath>
</defs>
</svg>
