<svg width="40" height="40" viewBox="0 0 40 40" fill="none" xmlns="http://www.w3.org/2000/svg">
<path d="M15.48 28.625C14.1322 27.7084 13.1389 26.5 12.5 25H27.5C26.8611 26.5 25.8683 27.7084 24.5217 28.625C23.175 29.5417 21.6678 30 20 30C18.3322 30 16.825 29.5417 15.4783 28.625M14.3533 21.895C13.9511 21.4928 13.75 21 13.75 20.4167C13.75 19.8334 13.9517 19.34 14.355 18.9367C14.7583 18.5334 15.2511 18.3322 15.8333 18.3334C16.4156 18.3345 16.9089 18.5361 17.3133 18.9384C17.7178 19.3406 17.9189 19.8334 17.9167 20.4167C17.9145 21 17.7128 21.4934 17.3117 21.8967C16.9106 22.3 16.4178 22.5011 15.8333 22.5C15.2489 22.4989 14.7556 22.2972 14.3533 21.895ZM22.6867 21.895C22.2845 21.4928 22.0833 21 22.0833 20.4167C22.0833 19.8334 22.285 19.34 22.6883 18.9367C23.0917 18.5334 23.5845 18.3322 24.1667 18.3334C24.7489 18.3345 25.2422 18.5361 25.6467 18.9384C26.0511 19.3406 26.2522 19.8334 26.25 20.4167C26.2478 21 26.0461 21.4934 25.645 21.8967C25.2439 22.3 24.7511 22.5011 24.1667 22.5C23.5822 22.4989 23.0889 22.2972 22.6867 21.895ZM20 36.6667C17.9167 36.6667 15.9656 36.2711 14.1467 35.48C12.3278 34.6889 10.7445 33.6195 9.39668 32.2717C8.0489 30.9239 6.97946 29.3406 6.18835 27.5217C5.39724 25.7028 5.00113 23.7511 5.00001 21.6667C5.00001 20.7778 5.06946 19.9167 5.20835 19.0834C5.34724 18.25 5.56946 17.4306 5.87501 16.625L9.20835 17.2084C8.90279 17.9028 8.68057 18.6184 8.54168 19.355C8.40279 20.0917 8.33335 20.8622 8.33335 21.6667C8.33335 24.9167 9.46557 27.6739 11.73 29.9384C13.9945 32.2028 16.7511 33.3345 20 33.3334C23.2489 33.3322 26.0061 32.2006 28.2717 29.9384C30.5372 27.6761 31.6689 24.9189 31.6667 21.6667C31.6667 21.2222 31.6389 20.7845 31.5833 20.3534C31.5278 19.9222 31.4583 19.4989 31.375 19.0834C29.125 18.8334 27.0417 18.1667 25.125 17.0834C23.2083 16 21.5695 14.5972 20.2083 12.875L23.125 11.1667C24.0139 12.1945 25.0211 13.0695 26.1467 13.7917C27.2722 14.5139 28.5011 15.0556 29.8333 15.4167C29.1389 14.3334 28.285 13.3817 27.2717 12.5617C26.2583 11.7417 25.1256 11.11 23.8733 10.6667L27.3733 8.58335C29.68 9.88891 31.5278 11.6878 32.9167 13.98C34.3056 16.2722 35 18.8345 35 21.6667C35 23.75 34.6045 25.7017 33.8133 27.5217C33.0222 29.3417 31.9528 30.925 30.605 32.2717C29.2572 33.6184 27.6739 34.6878 25.855 35.48C24.0361 36.2722 22.0845 36.6678 20 36.6667ZM8.33335 14.375L25.5417 7.91669C24.6528 7.19447 23.6806 6.64613 22.625 6.27169C21.5695 5.89724 20.4583 5.70946 19.2917 5.70835C16.6528 5.70835 14.2989 6.50724 12.23 8.10502C10.1611 9.7028 8.86224 11.7928 8.33335 14.375ZM5.66668 18.9584C5.47224 18.4028 5.31224 17.8334 5.18668 17.25C5.06113 16.6667 4.9989 16.0695 5.00001 15.4584C5.00001 12.9306 5.70835 10.6667 7.12501 8.66669C8.54168 6.66669 10.3333 5.11113 12.5 4.00002C12.4445 3.88891 12.41 3.78502 12.3967 3.68835C12.3833 3.59169 12.3761 3.47335 12.375 3.33335C12.375 2.86113 12.535 2.46558 12.855 2.14669C13.175 1.8278 13.5706 1.6678 14.0417 1.66669C14.4306 1.66669 14.7639 1.7778 15.0417 2.00002C15.3195 2.22224 15.5139 2.50002 15.625 2.83335C16.2361 2.69446 16.8406 2.58335 17.4383 2.50002C18.0361 2.41669 18.6539 2.37502 19.2917 2.37502C21.1528 2.37502 22.9239 2.73613 24.605 3.45835C26.2861 4.18058 27.765 5.22224 29.0417 6.58335L34.125 4.66669L35.2917 7.79169L5.66668 18.9584Z" fill="#006D37"/>
</svg>
