<svg width="24" height="24" viewBox="0 0 24 24" fill="none" xmlns="http://www.w3.org/2000/svg">
<path d="M17.749 3C18.611 3 19.4376 3.34241 20.0471 3.9519C20.6566 4.5614 20.999 5.38805 20.999 6.25V11.012C20.4887 10.9679 19.9752 11.0433 19.499 11.232V8.5H4.499V17.749C4.499 18.715 5.283 19.499 6.249 19.499H11.54L11.52 19.575L11.164 20.998H6.25C5.8232 20.998 5.40059 20.9139 5.00628 20.7506C4.61197 20.5873 4.25369 20.3479 3.9519 20.0461C3.65011 19.7443 3.41072 19.386 3.24739 18.9917C3.08406 18.5974 3 18.1748 3 17.748V6.25C3 5.38805 3.34241 4.5614 3.9519 3.9519C4.5614 3.34241 5.38805 3 6.25 3H17.749ZM17.749 4.5H6.249C5.78504 4.50027 5.34018 4.68476 5.01221 5.01292C4.68424 5.34108 4.5 5.78604 4.5 6.25V7H19.5V6.25C19.5 5.78587 19.3156 5.34075 18.9874 5.01256C18.6592 4.68437 18.2131 4.5 17.749 4.5ZM13.198 18.57L19.099 12.669C19.5298 12.2512 20.1077 12.0197 20.7078 12.0242C21.3079 12.0288 21.8821 12.2692 22.3065 12.6935C22.7309 13.1178 22.9715 13.6919 22.9763 14.292C22.981 14.8921 22.7496 15.47 22.332 15.901L16.43 21.803C16.0852 22.1465 15.654 22.3904 15.182 22.509L13.352 22.967C13.1698 23.0125 12.979 23.0101 12.798 22.96C12.617 22.9098 12.4522 22.8136 12.3194 22.6808C12.1867 22.548 12.0906 22.383 12.0406 22.202C11.9906 22.021 11.9883 21.8301 12.034 21.648L12.491 19.818C12.609 19.346 12.853 18.915 13.198 18.57ZM9 15.75C9 15.4185 8.8683 15.1005 8.63388 14.8661C8.39946 14.6317 8.08152 14.5 7.75 14.5C7.41848 14.5 7.10054 14.6317 6.86612 14.8661C6.6317 15.1005 6.5 15.4185 6.5 15.75C6.5 16.0815 6.6317 16.3995 6.86612 16.6339C7.10054 16.8683 7.41848 17 7.75 17C8.08152 17 8.39946 16.8683 8.63388 16.6339C8.8683 16.3995 9 16.0815 9 15.75ZM13.25 15.75C13.25 15.4185 13.1183 15.1005 12.8839 14.8661C12.6495 14.6317 12.3315 14.5 12 14.5C11.6685 14.5 11.3505 14.6317 11.1161 14.8661C10.8817 15.1005 10.75 15.4185 10.75 15.75C10.75 16.0815 10.8817 16.3995 11.1161 16.6339C11.3505 16.8683 11.6685 17 12 17C12.3315 17 12.6495 16.8683 12.8839 16.6339C13.1183 16.3995 13.25 16.0815 13.25 15.75ZM9 11.75C9 11.4185 8.8683 11.1005 8.63388 10.8661C8.39946 10.6317 8.08152 10.5 7.75 10.5C7.41848 10.5 7.10054 10.6317 6.86612 10.8661C6.6317 11.1005 6.5 11.4185 6.5 11.75C6.5 12.0815 6.6317 12.3995 6.86612 12.6339C7.10054 12.8683 7.41848 13 7.75 13C8.08152 13 8.39946 12.8683 8.63388 12.6339C8.8683 12.3995 9 12.0815 9 11.75ZM13.25 11.75C13.25 11.4185 13.1183 11.1005 12.8839 10.8661C12.6495 10.6317 12.3315 10.5 12 10.5C11.6685 10.5 11.3505 10.6317 11.1161 10.8661C10.8817 11.1005 10.75 11.4185 10.75 11.75C10.75 12.0815 10.8817 12.3995 11.1161 12.6339C11.3505 12.8683 11.6685 13 12 13C12.3315 13 12.6495 12.8683 12.8839 12.6339C13.1183 12.3995 13.25 12.0815 13.25 11.75ZM17.5 11.75C17.5 11.4185 17.3683 11.1005 17.1339 10.8661C16.8995 10.6317 16.5815 10.5 16.25 10.5C15.9185 10.5 15.6005 10.6317 15.3661 10.8661C15.1317 11.1005 15 11.4185 15 11.75C15 12.0815 15.1317 12.3995 15.3661 12.6339C15.6005 12.8683 15.9185 13 16.25 13C16.5815 13 16.8995 12.8683 17.1339 12.6339C17.3683 12.3995 17.5 12.0815 17.5 11.75Z" fill="#006D37"/>
</svg>
