<svg width="24" height="24" viewBox="0 0 24 24" fill="none" xmlns="http://www.w3.org/2000/svg">
<path d="M8.80001 11.2001C7.73915 11.2001 6.72173 10.7787 5.97159 10.0285C5.22144 9.27838 4.80001 8.26096 4.80001 7.2001V4.0001C4.80001 3.78792 4.8843 3.58444 5.03433 3.43441C5.18436 3.28438 5.38784 3.2001 5.60001 3.2001H6.40001C6.61219 3.2001 6.81567 3.11581 6.9657 2.96578C7.11573 2.81575 7.20001 2.61227 7.20001 2.4001C7.20001 2.18792 7.11573 1.98444 6.9657 1.83441C6.81567 1.68438 6.61219 1.6001 6.40001 1.6001H5.60001C4.96349 1.6001 4.35304 1.85295 3.90296 2.30304C3.45287 2.75313 3.20001 3.36358 3.20001 4.0001V7.2001C3.20104 8.10389 3.42143 8.99392 3.84225 9.79376C4.26307 10.5936 4.87175 11.2793 5.61601 11.7921C6.33179 12.4219 6.91219 13.1906 7.32199 14.0514C7.73179 14.9123 7.96246 15.8474 8.00001 16.8001C8.00001 18.2853 8.59001 19.7097 9.64021 20.7599C10.6904 21.8101 12.1148 22.4001 13.6 22.4001C15.0852 22.4001 16.5096 21.8101 17.5598 20.7599C18.61 19.7097 19.2 18.2853 19.2 16.8001V15.8881C19.9541 15.6934 20.6114 15.2303 21.0485 14.5857C21.4856 13.9411 21.6726 13.1591 21.5745 12.3865C21.4764 11.6138 21.0998 10.9035 20.5154 10.3886C19.931 9.87377 19.1789 9.58971 18.4 9.58971C17.6212 9.58971 16.869 9.87377 16.2846 10.3886C15.7002 10.9035 15.3237 11.6138 15.2255 12.3865C15.1274 13.1591 15.3144 13.9411 15.7515 14.5857C16.1887 15.2303 16.8459 15.6934 17.6 15.8881V16.8001C17.6 17.861 17.1786 18.8784 16.4284 19.6285C15.6783 20.3787 14.6609 20.8001 13.6 20.8001C12.5391 20.8001 11.5217 20.3787 10.7716 19.6285C10.0214 18.8784 9.60001 17.861 9.60001 16.8001C9.63959 15.8462 9.87276 14.9104 10.2853 14.0494C10.6979 13.1885 11.2813 12.4205 12 11.7921C12.7413 11.2776 13.3469 10.591 13.7649 9.79131C14.1828 8.99158 14.4008 8.10247 14.4 7.2001V4.0001C14.4 3.36358 14.1472 2.75313 13.6971 2.30304C13.247 1.85295 12.6365 1.6001 12 1.6001H11.2C10.9878 1.6001 10.7844 1.68438 10.6343 1.83441C10.4843 1.98444 10.4 2.18792 10.4 2.4001C10.4 2.61227 10.4843 2.81575 10.6343 2.96578C10.7844 3.11581 10.9878 3.2001 11.2 3.2001H12C12.2122 3.2001 12.4157 3.28438 12.5657 3.43441C12.7157 3.58444 12.8 3.78792 12.8 4.0001V7.2001C12.8 7.72538 12.6965 8.24553 12.4955 8.73083C12.2945 9.21613 11.9999 9.65709 11.6284 10.0285C11.257 10.4 10.816 10.6946 10.3307 10.8956C9.84544 11.0966 9.3253 11.2001 8.80001 11.2001ZM18.4 14.4001C17.9757 14.4001 17.5687 14.2315 17.2686 13.9315C16.9686 13.6314 16.8 13.2244 16.8 12.8001C16.8 12.3758 16.9686 11.9688 17.2686 11.6687C17.5687 11.3687 17.9757 11.2001 18.4 11.2001C18.8244 11.2001 19.2313 11.3687 19.5314 11.6687C19.8314 11.9688 20 12.3758 20 12.8001C20 13.2244 19.8314 13.6314 19.5314 13.9315C19.2313 14.2315 18.8244 14.4001 18.4 14.4001Z" fill="#155DFC"/>
</svg>
