<svg width="24" height="24" viewBox="0 0 24 24" fill="none" xmlns="http://www.w3.org/2000/svg">
<path d="M5.63636 20V18.1176H7.09091L8.88636 11.9294C9.00758 11.5216 9.23121 11.1962 9.55727 10.9534C9.88333 10.7106 10.243 10.5889 10.6364 10.5882H13.3636C13.7576 10.5882 14.1176 10.71 14.4436 10.9534C14.7697 11.1969 14.993 11.5222 15.1136 11.9294L16.9091 18.1176H18.3636V20H5.63636ZM9 18.1176H15L13.3636 12.4706H10.6364L9 18.1176ZM11.0909 8.70588V4H12.9091V8.70588H11.0909ZM16.5 11.0353L15.2045 9.69412L18.4318 6.37647L19.7045 7.69412L16.5 11.0353ZM17.4545 15.2941V13.4118H22V15.2941H17.4545ZM7.5 11.0353L4.29545 7.69412L5.56818 6.37647L8.79545 9.69412L7.5 11.0353ZM2 15.2941V13.4118H6.54545V15.2941H2Z" fill="#FF0000"/>
</svg>
