<svg width="24" height="24" viewBox="0 0 24 24" fill="none" xmlns="http://www.w3.org/2000/svg">
<path d="M14.1484 9.6875V12.8633C14.1484 12.9453 14.0859 13.0078 14.0039 13.0078H13.4961C13.4453 13.0078 13.4023 12.9805 13.3789 12.9492L11.9219 10.9844V12.8672C11.9219 12.9492 11.8594 13.0117 11.7773 13.0117H11.2695C11.1875 13.0117 11.125 12.9492 11.125 12.8672V9.69141C11.125 9.60938 11.1875 9.54688 11.2695 9.54688H11.7734C11.8164 9.54688 11.8672 9.57031 11.8906 9.60938L13.3477 11.5742V9.69141C13.3477 9.60938 13.4102 9.54688 13.4922 9.54688H14C14.082 9.54297 14.1484 9.60938 14.1484 9.6836V9.6875ZM10.4883 9.54297H9.98047C9.89844 9.54297 9.83594 9.60547 9.83594 9.6875V12.8633C9.83594 12.9453 9.89844 13.0078 9.98047 13.0078H10.4883C10.5703 13.0078 10.6328 12.9453 10.6328 12.8633V9.6875C10.6328 9.61328 10.5703 9.54297 10.4883 9.54297ZM9.26172 12.2031H7.8711V9.6875C7.8711 9.60547 7.8086 9.54297 7.72657 9.54297H7.21875C7.13672 9.54297 7.07422 9.60547 7.07422 9.6875V12.8633C7.07422 12.9023 7.08594 12.9336 7.11328 12.9609C7.14063 12.9844 7.17188 13 7.21094 13H9.25C9.33203 13 9.39453 12.9375 9.39453 12.8555V12.3477C9.39453 12.2734 9.33203 12.2031 9.25781 12.2031H9.26172ZM16.8281 9.54297H14.7852C14.7109 9.54297 14.6406 9.60547 14.6406 9.6875V12.8633C14.6406 12.9375 14.7031 13.0078 14.7852 13.0078H16.8242C16.9062 13.0078 16.9687 12.9453 16.9687 12.8633V12.3516C16.9687 12.2695 16.9062 12.207 16.8242 12.207H15.4375V11.6758H16.8242C16.9062 11.6758 16.9687 11.6133 16.9687 11.5313V11.0195C16.9687 10.9375 16.9062 10.875 16.8242 10.875H15.4375V10.3398H16.8242C16.9062 10.3398 16.9687 10.2773 16.9687 10.1953V9.6875C16.9648 9.61328 16.9023 9.54297 16.8242 9.54297H16.8281ZM22 5.64844V18.3828C21.9961 20.3828 20.3555 22.0039 18.3516 22H5.61719C3.61719 21.9961 1.9961 20.3516 2.00001 18.3516V5.61719C2.00391 3.61719 3.64844 1.9961 5.64844 2.00001H18.3828C20.3828 2.00391 22.0039 3.64454 22 5.64844ZM19.25 11.1211C19.25 7.86328 15.9805 5.21094 11.9688 5.21094C7.95703 5.21094 4.68751 7.86328 4.68751 11.1211C4.68751 14.0391 7.27735 16.4883 10.7773 16.9531C11.6289 17.1367 11.5313 17.4492 11.3398 18.5977C11.3086 18.7812 11.1914 19.3164 11.9688 18.9922C12.7461 18.668 16.1602 16.5234 17.6914 14.7656C18.7461 13.6055 19.25 12.4297 19.25 11.1289V11.1211Z" fill="white"/>
</svg>
