<svg width="40" height="40" viewBox="0 0 40 40" fill="none" xmlns="http://www.w3.org/2000/svg">
<path fill-rule="evenodd" clip-rule="evenodd" d="M20 15.4166C18.3424 15.4166 16.7527 16.0751 15.5806 17.2472C14.4085 18.4193 13.75 20.009 13.75 21.6666C13.75 23.3242 14.4085 24.9139 15.5806 26.086C16.7527 27.2581 18.3424 27.9166 20 27.9166C21.6576 27.9166 23.2473 27.2581 24.4194 26.086C25.5915 24.9139 26.25 23.3242 26.25 21.6666C26.25 20.009 25.5915 18.4193 24.4194 17.2472C23.2473 16.0751 21.6576 15.4166 20 15.4166ZM16.25 21.6666C16.25 20.6721 16.6451 19.7182 17.3483 19.015C18.0516 18.3117 19.0054 17.9166 20 17.9166C20.9946 17.9166 21.9484 18.3117 22.6516 19.015C23.3549 19.7182 23.75 20.6721 23.75 21.6666C23.75 22.6612 23.3549 23.615 22.6516 24.3183C21.9484 25.0215 20.9946 25.4166 20 25.4166C19.0054 25.4166 18.0516 25.0215 17.3483 24.3183C16.6451 23.615 16.25 22.6612 16.25 21.6666Z" fill="#006D37"/>
<path d="M16.6666 30.4166C16.3351 30.4166 16.0172 30.5483 15.7827 30.7827C15.5483 31.0172 15.4166 31.3351 15.4166 31.6666C15.4166 31.9981 15.5483 32.3161 15.7827 32.5505C16.0172 32.7849 16.3351 32.9166 16.6666 32.9166H23.3333C23.6648 32.9166 23.9828 32.7849 24.2172 32.5505C24.4516 32.3161 24.5833 31.9981 24.5833 31.6666C24.5833 31.3351 24.4516 31.0172 24.2172 30.7827C23.9828 30.5483 23.6648 30.4166 23.3333 30.4166H16.6666Z" fill="#006D37"/>
<path fill-rule="evenodd" clip-rule="evenodd" d="M26.0183 2.63996C26.6683 2.54708 27.3307 2.59495 27.9606 2.78033C28.5905 2.96572 29.1733 3.28428 29.6694 3.71447C30.1654 4.14465 30.5633 4.67641 30.836 5.27373C31.1087 5.87105 31.2499 6.52 31.25 7.17663V9.47163C32.2561 10.0025 33.0982 10.7979 33.6856 11.7721C34.273 12.7463 34.5834 13.8624 34.5833 15V31.6666C34.5833 33.3242 33.9248 34.9139 32.7527 36.086C31.5806 37.2581 29.9909 37.9166 28.3333 37.9166H11.6666C10.009 37.9166 8.41931 37.2581 7.24721 36.086C6.07511 34.9139 5.41663 33.3242 5.41663 31.6666V8.33329V8.21496C5.41663 6.70496 6.52663 5.42329 8.02329 5.20996L26.0183 2.63996ZM8.45163 11.25H7.91663V31.6666C7.91663 32.6612 8.31171 33.615 9.01498 34.3183C9.71824 35.0215 10.6721 35.4166 11.6666 35.4166H28.3333C29.3279 35.4166 30.2817 35.0215 30.9849 34.3183C31.6882 33.615 32.0833 32.6612 32.0833 31.6666V15C32.0833 14.0083 31.6905 13.057 30.9908 12.3542C30.2912 11.6514 29.3416 11.2544 28.35 11.25H8.45163ZM28.75 8.74996H8.44496C8.30978 8.74882 8.18004 8.69655 8.08183 8.60366C7.98362 8.51077 7.92421 8.38414 7.91556 8.24924C7.9069 8.11433 7.94964 7.98115 8.03517 7.87647C8.12071 7.77178 8.2427 7.70336 8.37663 7.68496L26.3716 5.11663C26.6671 5.07436 26.9682 5.09608 27.2545 5.18029C27.5408 5.26451 27.8057 5.40927 28.0312 5.60476C28.2568 5.80025 28.4376 6.04192 28.5616 6.3134C28.6856 6.58488 28.7499 6.87983 28.75 7.17829V8.74996Z" fill="#006D37"/>
</svg>
