<svg width="40" height="40" viewBox="0 0 40 40" fill="none" xmlns="http://www.w3.org/2000/svg">
<path d="M35.5942 8.83627L20.5942 3.83627C20.2101 3.7066 19.794 3.7066 19.4098 3.83627L4.40984 8.83627C4.05192 8.95481 3.73806 9.1785 3.50922 9.47814C3.28037 9.77779 3.14718 10.1395 3.12703 10.516C3.1253 10.5487 3.1253 10.5816 3.12703 10.6144V23.1144C3.12703 23.6117 3.32457 24.0886 3.6762 24.4402C4.02783 24.7918 4.50474 24.9894 5.00203 24.9894C5.49931 24.9894 5.97622 24.7918 6.32785 24.4402C6.67948 24.0886 6.87703 23.6117 6.87703 23.1144V13.216L10.5817 14.4503C9.43196 16.6511 9.09029 19.1854 9.61617 21.612C10.142 24.0387 11.5022 26.2042 13.4598 27.7316C10.898 28.9949 8.72988 30.9339 7.18953 33.3394C7.05081 33.5456 6.95446 33.7772 6.90607 34.021C6.85769 34.2647 6.85823 34.5156 6.90767 34.7591C6.95711 35.0026 7.05446 35.2339 7.19406 35.4395C7.33366 35.645 7.51273 35.8208 7.72086 35.9566C7.92899 36.0923 8.16202 36.1853 8.40642 36.2302C8.65082 36.2751 8.9017 36.271 9.14448 36.2181C9.38727 36.1651 9.61712 36.0645 9.82066 35.922C10.0242 35.7794 10.1974 35.5979 10.3302 35.3878C12.5598 31.9566 16.0958 29.9894 20.002 29.9894C23.9083 29.9894 27.4442 31.9566 29.6817 35.3878C29.8145 35.5979 29.9877 35.7794 30.1912 35.922C30.3947 36.0645 30.6246 36.1651 30.8674 36.2181C31.1102 36.271 31.361 36.2751 31.6054 36.2302C31.8498 36.1853 32.0829 36.0923 32.291 35.9566C32.4991 35.8208 32.6782 35.645 32.8178 35.4395C32.9574 35.2339 33.0548 35.0026 33.1042 34.7591C33.1536 34.5156 33.1542 34.2647 33.1058 34.021C33.0574 33.7772 32.9611 33.5456 32.8223 33.3394C31.2805 30.9311 29.1095 28.9903 26.5442 27.7269C28.5019 26.1995 29.862 24.034 30.3879 21.6074C30.9138 19.1807 30.5721 16.6464 29.4223 14.4456L35.5942 12.3878C35.9671 12.2631 36.2913 12.0243 36.521 11.7052C36.7507 11.3861 36.8743 11.0029 36.8743 10.6097C36.8743 10.2165 36.7507 9.8333 36.521 9.51421C36.2913 9.19513 35.9671 8.95633 35.5942 8.83158V8.83627ZM20.002 7.58627L29.0723 10.6144L20.002 13.6378L10.9395 10.6144L20.002 7.58627ZM26.877 19.3644C26.8772 20.4323 26.6287 21.4855 26.1511 22.4406C25.6734 23.3957 24.9799 24.2264 24.1254 24.8669C23.271 25.5074 22.279 25.94 21.2283 26.1304C20.1775 26.3209 19.0969 26.264 18.072 25.9642C17.047 25.6644 16.106 25.13 15.3236 24.4033C14.5411 23.6766 13.9387 22.7777 13.564 21.7777C13.1894 20.7777 13.0528 19.7042 13.1652 18.6422C13.2776 17.5803 13.6358 16.5591 14.2114 15.6597L19.4098 17.3925C19.7941 17.5216 20.21 17.5216 20.5942 17.3925L25.7926 15.6597C26.5017 16.7652 26.8781 18.0511 26.877 19.3644Z" fill="#F97316"/>
</svg>
