<svg width="24" height="24" viewBox="0 0 24 24" fill="none" xmlns="http://www.w3.org/2000/svg">
<path fill-rule="evenodd" clip-rule="evenodd" d="M10.5002 4C10.1546 3.99988 9.81945 4.11915 9.55159 4.33762C9.28373 4.5561 9.09954 4.86038 9.03018 5.199C9.00398 5.3277 8.95269 5.44997 8.87923 5.55884C8.80578 5.66772 8.71159 5.76106 8.60207 5.83353C8.49254 5.90601 8.3698 5.9562 8.24087 5.98125C8.11195 6.00629 7.97935 6.0057 7.85065 5.9795C7.72195 5.9533 7.59967 5.90201 7.4908 5.82856C7.38192 5.7551 7.28858 5.66092 7.2161 5.5514C7.14362 5.44187 7.09343 5.31914 7.06838 5.19022C7.04334 5.06129 7.04393 4.9287 7.07013 4.8C7.20258 4.15116 7.51639 3.5532 7.97511 3.07559C8.43384 2.59797 9.01865 2.26029 9.66164 2.10176C10.3046 1.94324 10.9794 1.97037 11.6076 2.18002C12.2357 2.38967 12.7915 2.77322 13.2104 3.28613C13.6293 3.79904 13.8941 4.42026 13.974 5.07764C14.0539 5.73503 13.9457 6.40159 13.6619 6.99992C13.3781 7.59825 12.9304 8.10379 12.3707 8.45782C11.8111 8.81186 11.1625 8.99987 10.5002 9H5.00008C4.73485 9 4.48049 8.89464 4.29295 8.70711C4.10541 8.51957 4.00005 8.26522 4.00005 8C4.00005 7.73478 4.10541 7.48043 4.29295 7.29289C4.48049 7.10536 4.73485 7 5.00008 7H10.5002C10.8981 7 11.2796 6.84196 11.5609 6.56066C11.8422 6.27936 12.0003 5.89783 12.0003 5.5C12.0003 5.10218 11.8422 4.72064 11.5609 4.43934C11.2796 4.15804 10.8981 4 10.5002 4ZM18.5004 8C18.1548 7.99988 17.8197 8.11915 17.5518 8.33762C17.2839 8.5561 17.0997 8.86038 17.0304 9.199C17.0042 9.3277 16.953 9.44998 16.8796 9.55888C16.8062 9.66778 16.7121 9.76116 16.6026 9.83368C16.4931 9.9062 16.3704 9.95645 16.2415 9.98156C16.1126 10.0067 15.9801 10.0061 15.8514 9.98C15.7227 9.95387 15.6004 9.90264 15.4915 9.82925C15.3826 9.75585 15.2892 9.66173 15.2167 9.55225C15.1441 9.44277 15.0939 9.32008 15.0688 9.19118C15.0437 9.06228 15.0442 8.9297 15.0703 8.801C15.2026 8.15207 15.5163 7.55398 15.9749 7.07621C16.4336 6.59844 17.0183 6.2606 17.6613 6.10193C18.3043 5.94326 18.9792 5.97028 19.6074 6.17984C20.2357 6.3894 20.7916 6.77291 21.2106 7.28581C21.6296 7.79872 21.8944 8.41996 21.9744 9.07739C22.0544 9.73482 21.9462 10.4014 21.6623 10.9998C21.3785 11.5982 20.9308 12.1038 20.3711 12.4579C19.8114 12.8119 19.1627 12.9999 18.5004 13H3.00003C2.7348 13 2.48044 12.8946 2.2929 12.7071C2.10536 12.5196 2 12.2652 2 12C2 11.7348 2.10536 11.4804 2.2929 11.2929C2.48044 11.1054 2.7348 11 3.00003 11H18.5004C18.8983 11 19.2798 10.842 19.5611 10.5607C19.8424 10.2794 20.0005 9.89782 20.0005 9.5C20.0005 9.10218 19.8424 8.72064 19.5611 8.43934C19.2798 8.15804 18.8983 8 18.5004 8ZM13.0303 18.801C13.0872 19.079 13.2218 19.3351 13.4185 19.5397C13.6152 19.7442 13.8659 19.8888 14.1414 19.9566C14.417 20.0244 14.7061 20.0126 14.9752 19.9227C15.2444 19.8327 15.4825 19.6683 15.6619 19.4485C15.8413 19.2287 15.9547 18.9624 15.9889 18.6808C16.0231 18.3991 15.9767 18.1135 15.8551 17.8571C15.7335 17.6007 15.5416 17.3841 15.3018 17.2324C15.062 17.0807 14.7841 17.0001 14.5003 17H8.00015C7.73493 17 7.48057 16.8946 7.29303 16.7071C7.10549 16.5196 7.00013 16.2652 7.00013 16C7.00013 15.7348 7.10549 15.4804 7.29303 15.2929C7.48057 15.1054 7.73493 15 8.00015 15H14.5003C15.1626 15.0001 15.8113 15.1881 16.371 15.5421C16.9307 15.8962 17.3784 16.4018 17.6622 17.0002C17.9461 17.5986 18.0543 18.2652 17.9743 18.9226C17.8943 19.58 17.6295 20.2013 17.2105 20.7142C16.7915 21.2271 16.2356 21.6106 15.6073 21.8202C14.9791 22.0297 14.3042 22.0567 13.6612 21.8981C13.0182 21.7394 12.4335 21.4016 11.9748 20.9238C11.5162 20.446 11.2025 19.8479 11.0702 19.199C11.0175 18.9391 11.0701 18.6689 11.2166 18.4478C11.363 18.2266 11.5913 18.0728 11.8512 18.02C12.1112 17.9672 12.3814 18.0199 12.6025 18.1663C12.8236 18.3128 12.9775 18.5411 13.0303 18.801Z" fill="#006D37"/>
</svg>
